<svg width="20" height="20" fill="none" xmlns="http://www.w3.org/2000/svg"><path d="M6.25 0h7.5A6.25 6.25 0 0120 6.25v7.5A6.25 6.25 0 0113.75 20h-7.5A6.25 6.25 0 010 13.75v-7.5A6.25 6.25 0 016.25 0zM1.875 13.75a4.38 4.38 0 004.375 4.375h7.5a4.38 4.38 0 004.375-4.375v-7.5a4.38 4.38 0 00-4.375-4.375h-7.5A4.38 4.38 0 001.875 6.25v7.5z" fill="url(#paint0_linear)"/><path d="M10 5a5 5 0 110 10 5 5 0 010-10zm0 8.125A3.13 3.13 0 0013.125 10 3.129 3.129 0 0010 6.875 3.129 3.129 0 006.875 10 3.13 3.13 0 0010 13.125z" fill="url(#paint1_linear)"/><path d="M4.627 5.291a.666.666 0 110-1.332.666.666 0 010 1.332z" fill="url(#paint2_linear)"/><defs><linearGradient id="paint0_linear" x1="18.169" y1="18.169" x2="1.831" y2="1.831" gradientUnits="userSpaceOnUse"><stop stop-color="#FFC107"/><stop offset=".507" stop-color="#F44336"/><stop offset=".99" stop-color="#9C27B0"/></linearGradient><linearGradient id="paint1_linear" x1="13.535" y1="13.535" x2="6.465" y2="6.465" gradientUnits="userSpaceOnUse"><stop stop-color="#FFC107"/><stop offset=".507" stop-color="#F44336"/><stop offset=".99" stop-color="#9C27B0"/></linearGradient><linearGradient id="paint2_linear" x1="5.098" y1="5.096" x2="4.156" y2="4.154" gradientUnits="userSpaceOnUse"><stop stop-color="#FFC107"/><stop offset=".507" stop-color="#F44336"/><stop offset=".99" stop-color="#9C27B0"/></linearGradient></defs></svg>