<svg width="90" height="14" fill="none" xmlns="http://www.w3.org/2000/svg"><path d="M12.802 5.354a.584.584 0 00-.506-.394l-3.325-.264L7.53 1.51a.582.582 0 00-1.062 0l-1.44 3.186-3.325.264a.583.583 0 00-.361 1L3.8 8.354l-.869 3.764a.583.583 0 00.893.616L7 10.618l3.176 2.117a.585.585 0 00.885-.645L9.994 8.357l2.646-2.381a.584.584 0 00.162-.622zm19 0a.584.584 0 00-.506-.394l-3.325-.264-1.44-3.186a.582.582 0 00-1.062 0l-1.44 3.186-3.325.264a.583.583 0 00-.361 1L22.8 8.354l-.869 3.764a.583.583 0 00.893.616L26 10.618l3.176 2.117a.585.585 0 00.885-.645l-1.067-3.733 2.646-2.381a.584.584 0 00.162-.622zm19 0a.584.584 0 00-.506-.394l-3.325-.264-1.44-3.186a.582.582 0 00-1.062 0l-1.44 3.186-3.325.264a.583.583 0 00-.361 1L41.8 8.354l-.869 3.764a.583.583 0 00.893.616L45 10.618l3.176 2.117a.585.585 0 00.885-.645l-1.067-3.733 2.646-2.381a.584.584 0 00.162-.622zm19 0a.584.584 0 00-.506-.394l-3.326-.264-1.439-3.186a.582.582 0 00-1.062 0l-1.44 3.186-3.325.264a.583.583 0 00-.361 1L60.8 8.354l-.869 3.764a.583.583 0 00.893.616L64 10.618l3.176 2.117a.585.585 0 00.885-.645l-1.067-3.733 2.646-2.381a.584.584 0 00.162-.622zm19 0a.584.584 0 00-.506-.394l-3.326-.264-1.439-3.186a.582.582 0 00-1.062 0l-1.44 3.186-3.325.264a.583.583 0 00-.361 1L79.8 8.354l-.869 3.764a.583.583 0 00.893.616L83 10.618l3.176 2.117a.585.585 0 00.885-.645l-1.067-3.733 2.646-2.381a.584.584 0 00.162-.622z" fill="#C72849"/></svg>