<svg width="90" height="14" viewBox="0 0 90 14" fill="none" xmlns="http://www.w3.org/2000/svg">
    <path d="M12.8024 5.3545C12.7272 5.134 12.5283 4.97825 12.2961 4.96017L8.97053 4.69591L7.53145 1.51033C7.43753 1.30091 7.22928 1.16675 7.00003 1.16675C6.77078 1.16675 6.56253 1.30091 6.46861 1.50975L5.02953 4.69591L1.70395 4.96017C1.47586 4.97825 1.27928 5.12817 1.20169 5.34341C1.12411 5.55866 1.17895 5.79958 1.34286 5.95941L3.80044 8.35517L2.93128 12.1188C2.87761 12.3516 2.97153 12.5937 3.16811 12.7296C3.26845 12.7984 3.38394 12.8334 3.50003 12.8334C3.61261 12.8334 3.72578 12.8007 3.82378 12.7354L7.00003 10.6179L10.1763 12.7354C10.3793 12.8707 10.6459 12.8655 10.8442 12.7214C11.0414 12.5773 11.1283 12.3247 11.0612 12.0902L9.99428 8.35692L12.6403 5.97575C12.8135 5.81942 12.8771 5.57558 12.8024 5.3545Z" fill="#E094A5"/>
    <path d="M31.8024 5.3545C31.7272 5.134 31.5283 4.97825 31.2961 4.96017L27.9705 4.69591L26.5314 1.51033C26.4375 1.30091 26.2293 1.16675 26 1.16675C25.7708 1.16675 25.5625 1.30091 25.4686 1.50975L24.0295 4.69591L20.7039 4.96017C20.4759 4.97825 20.2793 5.12817 20.2017 5.34341C20.1241 5.55866 20.1789 5.79958 20.3429 5.95941L22.8004 8.35517L21.9313 12.1188C21.8776 12.3516 21.9715 12.5937 22.1681 12.7296C22.2684 12.7984 22.3839 12.8334 22.5 12.8334C22.6126 12.8334 22.7258 12.8007 22.8238 12.7354L26 10.6179L29.1763 12.7354C29.3793 12.8707 29.6459 12.8655 29.8442 12.7214C30.0414 12.5773 30.1283 12.3247 30.0612 12.0902L28.9943 8.35692L31.6403 5.97575C31.8135 5.81942 31.8771 5.57558 31.8024 5.3545Z" fill="#E094A5"/>
    <path d="M50.8024 5.3545C50.7272 5.134 50.5283 4.97825 50.2961 4.96017L46.9705 4.69591L45.5314 1.51033C45.4375 1.30091 45.2293 1.16675 45 1.16675C44.7708 1.16675 44.5625 1.30091 44.4686 1.50975L43.0295 4.69591L39.7039 4.96017C39.4759 4.97825 39.2793 5.12817 39.2017 5.34341C39.1241 5.55866 39.1789 5.79958 39.3429 5.95941L41.8004 8.35517L40.9313 12.1188C40.8776 12.3516 40.9715 12.5937 41.1681 12.7296C41.2684 12.7984 41.3839 12.8334 41.5 12.8334C41.6126 12.8334 41.7258 12.8007 41.8238 12.7354L45 10.6179L48.1763 12.7354C48.3793 12.8707 48.6459 12.8655 48.8442 12.7214C49.0414 12.5773 49.1283 12.3247 49.0612 12.0902L47.9943 8.35692L50.6403 5.97575C50.8135 5.81942 50.8771 5.57558 50.8024 5.3545Z" fill="#E094A5"/>
    <path d="M69.8024 5.3545C69.7272 5.134 69.5283 4.97825 69.2961 4.96017L65.9705 4.69591L64.5314 1.51033C64.4375 1.30091 64.2293 1.16675 64 1.16675C63.7708 1.16675 63.5625 1.30091 63.4686 1.50975L62.0295 4.69591L58.7039 4.96017C58.4759 4.97825 58.2793 5.12817 58.2017 5.34341C58.1241 5.55866 58.1789 5.79958 58.3429 5.95941L60.8004 8.35517L59.9313 12.1188C59.8776 12.3516 59.9715 12.5937 60.1681 12.7296C60.2684 12.7984 60.3839 12.8334 60.5 12.8334C60.6126 12.8334 60.7258 12.8007 60.8238 12.7354L64 10.6179L67.1763 12.7354C67.3793 12.8707 67.6459 12.8655 67.8442 12.7214C68.0414 12.5773 68.1283 12.3247 68.0612 12.0902L66.9943 8.35692L69.6403 5.97575C69.8135 5.81942 69.8771 5.57558 69.8024 5.3545Z" fill="#E094A5"/>
    <path d="M88.8024 5.3545C88.7272 5.134 88.5283 4.97825 88.2961 4.96017L84.9705 4.69591L83.5314 1.51033C83.4375 1.30091 83.2293 1.16675 83 1.16675C82.7708 1.16675 82.5625 1.30091 82.4686 1.50975L81.0295 4.69591L77.7039 4.96017C77.4759 4.97825 77.2793 5.12817 77.2017 5.34341C77.1241 5.55866 77.1789 5.79958 77.3429 5.95941L79.8004 8.35517L78.9313 12.1188C78.8776 12.3516 78.9715 12.5937 79.1681 12.7296C79.2684 12.7984 79.3839 12.8334 79.5 12.8334C79.6126 12.8334 79.7258 12.8007 79.8238 12.7354L83 10.6179L86.1763 12.7354C86.3793 12.8707 86.6459 12.8655 86.8442 12.7214C87.0414 12.5773 87.1283 12.3247 87.0612 12.0902L85.9943 8.35692L88.6403 5.97575C88.8135 5.81942 88.8771 5.57558 88.8024 5.3545Z" fill="#E094A5"/>
</svg>
