<svg width="15" height="14" viewBox="0 0 15 14" fill="none" xmlns="http://www.w3.org/2000/svg">
    <path d="M12.8024 5.3545C12.7272 5.134 12.5283 4.97825 12.2961 4.96017L8.97053 4.69591L7.53145 1.51033C7.43753 1.30091 7.22928 1.16675 7.00003 1.16675C6.77078 1.16675 6.56253 1.30091 6.46861 1.50975L5.02953 4.69591L1.70395 4.96017C1.47586 4.97825 1.27928 5.12817 1.20169 5.34341C1.12411 5.55866 1.17895 5.79958 1.34286 5.95941L3.80044 8.35517L2.93128 12.1188C2.87761 12.3516 2.97153 12.5937 3.16811 12.7296C3.26845 12.7984 3.38394 12.8334 3.50003 12.8334C3.61261 12.8334 3.72578 12.8007 3.82378 12.7354L7.00003 10.6179L10.1763 12.7354C10.3793 12.8707 10.6459 12.8655 10.8442 12.7214C11.0414 12.5773 11.1283 12.3247 11.0612 12.0902L9.99428 8.35692L12.6403 5.97575C12.8135 5.81942 12.8771 5.57558 12.8024 5.3545Z" fill="#E094A5"/>
</svg>
